<svg width="14" height="16" viewBox="0 0 14 16" fill="none" xmlns="http://www.w3.org/2000/svg">
<path d="M3.94121 2.47653L4.32063 1.04056C4.42863 0.630848 4.75548 0.313138 5.16747 0.215997C5.73889 0.0811416 6.30803 0.00799988 6.87716 0C7.4463 0.00799988 8.01543 0.0811416 8.58628 0.215997C8.99884 0.313709 9.32512 0.631419 9.43312 1.04056L9.81255 2.47653C9.90854 2.83881 9.63483 3.19424 9.25998 3.19424H4.49263C4.11892 3.19424 3.84521 2.83939 3.94121 2.47653Z" fill="white"/>
<path d="M11.4627 1.96606H10.7387L10.8044 2.21463C10.9324 2.69805 10.8307 3.20262 10.5256 3.59918C10.2204 3.99575 9.75814 4.22317 9.25757 4.22317H4.49079C3.99022 4.22317 3.52795 3.99575 3.22281 3.59918C2.91767 3.20262 2.81596 2.69748 2.94395 2.21406L3.00967 1.96606H2.28568C1.02284 1.96606 0 2.98891 0 4.25174V13.7145C0 14.9773 1.02284 16.0001 2.28568 16.0001H11.4627C12.7255 16.0001 13.7484 14.9773 13.7484 13.7145V4.25174C13.7484 2.98891 12.7255 1.96606 11.4627 1.96606ZM3.8708 12.6808H3.21881C2.93481 12.6808 2.70453 12.4505 2.70453 12.1665C2.70453 11.8825 2.93481 11.6522 3.21881 11.6522H3.87137C4.15536 11.6522 4.38565 11.8825 4.38565 12.1665C4.38565 12.4505 4.15479 12.6808 3.8708 12.6808ZM3.8708 10.1117H3.21881C2.93481 10.1117 2.70453 9.88137 2.70453 9.59738C2.70453 9.31338 2.93481 9.0831 3.21881 9.0831H3.87137C4.15536 9.0831 4.38565 9.31338 4.38565 9.59738C4.38565 9.88137 4.15479 10.1117 3.8708 10.1117ZM3.8708 7.54198H3.21881C2.93481 7.54198 2.70453 7.3117 2.70453 7.0277C2.70453 6.74371 2.93481 6.51342 3.21881 6.51342H3.87137C4.15536 6.51342 4.38565 6.74371 4.38565 7.0277C4.38565 7.3117 4.15479 7.54198 3.8708 7.54198ZM10.5296 12.6808H5.92162C5.63763 12.6808 5.40735 12.4505 5.40735 12.1665C5.40735 11.8825 5.63763 11.6522 5.92162 11.6522H10.5296C10.8135 11.6522 11.0438 11.8825 11.0438 12.1665C11.0438 12.4505 10.8141 12.6808 10.5296 12.6808ZM10.5296 10.1117H5.92162C5.63763 10.1117 5.40735 9.88137 5.40735 9.59738C5.40735 9.31338 5.63763 9.0831 5.92162 9.0831H10.5296C10.8135 9.0831 11.0438 9.31338 11.0438 9.59738C11.0438 9.88137 10.8141 10.1117 10.5296 10.1117ZM10.5296 7.54198H5.92162C5.63763 7.54198 5.40735 7.3117 5.40735 7.0277C5.40735 6.74371 5.63763 6.51342 5.92162 6.51342H10.5296C10.8135 6.51342 11.0438 6.74371 11.0438 7.0277C11.0438 7.3117 10.8141 7.54198 10.5296 7.54198Z" fill="white"/>
</svg>
