<svg width="24" height="24" viewBox="0 0 24 24" fill="none" xmlns="http://www.w3.org/2000/svg">
<path d="M2.5 8.18689C2.60406 6.08717 2.91537 4.77804 3.84664 3.84676C4.77792 2.91549 6.08705 2.60418 8.18677 2.50012M21.5 8.18689C21.3959 6.08717 21.0846 4.77804 20.1534 3.84676C19.2221 2.91549 17.9129 2.60418 15.8132 2.50012M15.8132 21.5001C17.9129 21.3961 19.2221 21.0848 20.1534 20.1535C21.0846 19.2222 21.3959 17.9131 21.5 15.8134M8.18676 21.5001C6.08705 21.3961 4.77792 21.0848 3.84664 20.1535C2.91537 19.2222 2.60406 17.9131 2.5 15.8134" stroke="#605DFF" stroke-width="1.5" stroke-linecap="round" stroke-linejoin="round"/>
<path d="M16.3494 12.1991L17.092 12.0946L16.3494 12.1991ZM14.4977 10.5535L14.5307 9.8042L14.4977 10.5535ZM14.4977 17.4468L14.5307 18.196L14.4977 17.4468ZM16.3494 15.8011L15.6067 15.6967L16.3494 15.8011ZM9.50231 10.5535L9.53528 11.3028L9.50231 10.5535ZM7.65064 12.1991L8.39333 12.3036L7.65064 12.1991ZM9.50231 17.4468L9.46933 18.196L9.50231 17.4468ZM7.65064 15.8011L8.39333 15.6967L7.65064 15.8011ZM8.75 10.5001C8.75 10.9143 9.08579 11.2501 9.5 11.2501C9.91421 11.2501 10.25 10.9143 10.25 10.5001H8.75ZM13.75 10.5001C13.75 10.9143 14.0858 11.2501 14.5 11.2501C14.9142 11.2501 15.25 10.9143 15.25 10.5001H13.75ZM12 16.7501C11.1193 16.7501 10.3208 16.7321 9.53528 16.6975L9.46933 18.196C10.2775 18.2316 11.0979 18.2501 12 18.2501V16.7501ZM14.4647 16.6975C13.6792 16.7321 12.8807 16.7501 12 16.7501V18.2501C12.9021 18.2501 13.7225 18.2316 14.5307 18.196L14.4647 16.6975ZM17.092 15.9056C17.1761 15.3079 17.25 14.6655 17.25 14.0001H15.75C15.75 14.5599 15.6877 15.1205 15.6067 15.6967L17.092 15.9056ZM17.25 14.0001C17.25 13.3348 17.1761 12.6923 17.092 12.0946L15.6067 12.3036C15.6877 12.8798 15.75 13.4403 15.75 14.0001H17.25ZM12 11.2501C12.8807 11.2501 13.6792 11.2682 14.4647 11.3028L14.5307 9.8042C13.7225 9.76864 12.9021 9.75012 12 9.75012V11.2501ZM9.53528 11.3028C10.3208 11.2682 11.1193 11.2501 12 11.2501V9.75012C11.0979 9.75012 10.2775 9.76864 9.46933 9.8042L9.53528 11.3028ZM6.90795 12.0946C6.82389 12.6923 6.75 13.3348 6.75 14.0001H8.25C8.25 13.4403 8.31229 12.8798 8.39333 12.3036L6.90795 12.0946ZM6.75 14.0001C6.75 14.6655 6.82389 15.3079 6.90795 15.9056L8.39333 15.6967C8.31229 15.1205 8.25 14.5599 8.25 14.0001H6.75ZM17.092 12.0946C16.9137 10.8269 15.828 9.8613 14.5307 9.8042L14.4647 11.3028C15.0614 11.329 15.532 11.7726 15.6067 12.3036L17.092 12.0946ZM14.5307 18.196C15.828 18.1389 16.9137 17.1733 17.092 15.9056L15.6067 15.6967C15.532 16.2277 15.0614 16.6712 14.4647 16.6975L14.5307 18.196ZM9.46933 9.8042C8.17205 9.8613 7.08626 10.8269 6.90795 12.0946L8.39333 12.3036C8.46802 11.7726 8.9386 11.329 9.53528 11.3028L9.46933 9.8042ZM9.53528 16.6975C8.9386 16.6712 8.46802 16.2277 8.39333 15.6967L6.90795 15.9056C7.08626 17.1733 8.17205 18.1389 9.46933 18.196L9.53528 16.6975ZM10.25 10.5001V9.00012H8.75V10.5001H10.25ZM13.75 9.00012V10.5001H15.25V9.00012H13.75ZM15.25 9.00012C15.25 7.2052 13.7949 5.75012 12 5.75012V7.25012C12.9665 7.25012 13.75 8.03362 13.75 9.00012H15.25ZM10.25 9.00012C10.25 8.03362 11.0335 7.25012 12 7.25012V5.75012C10.2051 5.75012 8.75 7.2052 8.75 9.00012H10.25Z" fill="#605DFF"/>
</svg>
