<svg width="21" height="21" viewBox="0 0 21 21" fill="none" xmlns="http://www.w3.org/2000/svg">
<g clip-path="url(#clip0_6964_6000)">
<path d="M5.00698 16.3809C4.85444 16.5335 4.85444 16.7808 5.00698 16.9334C5.15952 17.0859 5.40687 17.0859 5.5594 16.9334C5.87663 16.6161 6.29843 16.4414 6.7471 16.4414C7.19573 16.4414 7.61757 16.6161 7.93483 16.9334C8.01112 17.0096 8.11108 17.0478 8.21105 17.0478C8.31101 17.0478 8.41101 17.0096 8.48726 16.9334C8.63979 16.7809 8.63979 16.5335 8.48726 16.3809C8.02245 15.9161 7.40444 15.6602 6.74714 15.6602C6.08976 15.6602 5.47179 15.9161 5.00698 16.3809Z" fill="white"/>
<path d="M3.48297 14.4199C3.62102 14.4569 3.76114 14.4753 3.90036 14.4753C4.17801 14.4753 4.45211 14.4024 4.69903 14.2598C5.06977 14.0458 5.33493 13.7002 5.44575 13.2867C5.50161 13.0784 5.37793 12.8642 5.16954 12.8083C4.96106 12.7525 4.74696 12.8762 4.6911 13.0845C4.6343 13.2964 4.4984 13.4735 4.3084 13.5833C4.1184 13.6929 3.89711 13.7222 3.6852 13.6653C3.47688 13.6093 3.26262 13.7331 3.20676 13.9415C3.15094 14.1499 3.27457 14.3641 3.48297 14.4199Z" fill="white"/>
<path d="M8.79723 14.2598C9.04418 14.4024 9.3182 14.4753 9.59594 14.4753C9.73512 14.4753 9.87527 14.4569 10.0133 14.42C10.2217 14.3641 10.3454 14.1499 10.2895 13.9416C10.2337 13.7331 10.0195 13.6093 9.8111 13.6653C9.59922 13.7221 9.37785 13.693 9.18785 13.5833C8.99785 13.4735 8.86195 13.2964 8.80516 13.0845C8.7493 12.8762 8.53516 12.7525 8.32672 12.8084C8.11836 12.8642 7.99469 13.0784 8.05051 13.2868C8.16133 13.7002 8.42653 14.0458 8.79723 14.2598Z" fill="white"/>
<path d="M14.2481 0.75C10.8018 0.75 7.9981 3.5537 7.9981 6.99998C7.9981 7.47665 8.05228 7.949 8.15938 8.41075C7.70567 8.30563 7.23322 8.25005 6.74802 8.25005C5.73529 8.25005 4.72889 8.49837 3.8376 8.96825C3.64675 9.06883 3.57358 9.30508 3.67421 9.49594C3.77483 9.6868 4.01104 9.75993 4.2019 9.65934C4.98131 9.24848 5.86174 9.03133 6.74802 9.03133C9.76348 9.03133 12.2168 11.4846 12.2168 14.5001C12.2168 17.5155 9.76348 19.9688 6.74802 19.9688C3.73257 19.9688 1.27929 17.5155 1.27929 14.5001C1.27929 13.6137 1.4964 12.7334 1.90718 11.9543C2.00781 11.7634 1.93464 11.5271 1.74378 11.4265C1.55293 11.326 1.31668 11.399 1.21605 11.5899C0.746327 12.4809 0.498047 13.4872 0.498047 14.5C0.498047 17.9463 3.30179 20.75 6.74802 20.75C10.1943 20.75 12.998 17.9463 12.998 14.5C12.998 14.0148 12.9424 13.5424 12.8373 13.0887C13.2991 13.1958 13.7714 13.25 14.2481 13.25C17.6943 13.25 20.498 10.4463 20.498 6.99998C20.498 3.5537 17.6943 0.75 14.2481 0.75ZM14.2481 12.4687C13.6734 12.4687 13.1059 12.3787 12.56 12.2014C11.9249 10.6011 10.647 9.32317 9.04661 8.68802C8.86938 8.14208 8.77934 7.57466 8.77934 6.99998C8.77934 3.98452 11.2326 1.53125 14.2481 1.53125C17.2635 1.53125 19.7168 3.98452 19.7168 6.99998C19.7168 10.0154 17.2635 12.4687 14.2481 12.4687Z" fill="white"/>
<path d="M15.4348 8.27461C15.1176 8.59184 14.6958 8.76656 14.2471 8.76656C13.7984 8.76656 13.3767 8.59184 13.0595 8.27461C12.9069 8.12207 12.6596 8.12207 12.507 8.27457C12.3545 8.42707 12.3544 8.67441 12.507 8.82699C12.9717 9.2918 13.5897 9.54781 14.2471 9.54781C14.9045 9.54781 15.5225 9.2918 15.9873 8.82699C16.1398 8.67445 16.1398 8.42715 15.9873 8.27457C15.8347 8.12199 15.5874 8.12203 15.4348 8.27461Z" fill="white"/>
<path d="M12.7706 6.83551C12.8706 6.83551 12.9706 6.79734 13.0468 6.72109C13.1994 6.56852 13.1994 6.32121 13.0468 6.16863C12.7441 5.86594 12.3417 5.69922 11.9136 5.69922C11.4856 5.69922 11.0831 5.86594 10.7804 6.16863C10.6279 6.32117 10.6279 6.56852 10.7804 6.72109C10.933 6.87359 11.1803 6.87359 11.3329 6.72109C11.488 6.56594 11.6942 6.48051 11.9137 6.48051C12.133 6.48051 12.3393 6.56598 12.4944 6.72109C12.5707 6.79738 12.6707 6.83551 12.7706 6.83551Z" fill="white"/>
<path d="M16.5816 5.69922C16.1536 5.69922 15.7511 5.86594 15.4484 6.16863C15.2959 6.32117 15.2958 6.56848 15.4484 6.72109C15.6009 6.87359 15.8483 6.87363 16.0008 6.72109C16.156 6.56594 16.3622 6.48051 16.5816 6.48051C16.801 6.48051 17.0072 6.56598 17.1623 6.72109C17.2386 6.79734 17.3386 6.83551 17.4386 6.83551C17.5385 6.83551 17.6385 6.79734 17.7148 6.72109C17.8673 6.56855 17.8673 6.32121 17.7148 6.16863C17.4121 5.86594 17.0097 5.69922 16.5816 5.69922Z" fill="white"/>
<path d="M2.6055 10.7471C2.7055 10.7471 2.80554 10.7089 2.88183 10.6327C3.03437 10.4801 3.03437 10.2328 2.88183 10.0802C2.72929 9.9277 2.48198 9.9277 2.3294 10.0802L2.32921 10.0804C2.17667 10.2329 2.17675 10.4802 2.32929 10.6327C2.40558 10.709 2.5055 10.7471 2.6055 10.7471Z" fill="white"/>
</g>
<defs>
<clipPath id="clip0_6964_6000">
<rect width="20" height="20" fill="white" transform="translate(0.498047 0.75)"/>
</clipPath>
</defs>
</svg>
